<svg xmlns="http://www.w3.org/2000/svg" viewBox="0 0 640 330" width="640" height="330" font-family="system-ui, -apple-system, &quot;Segoe UI&quot;, sans-serif" role="img" aria-label="Data funnel from raw tickets to training-grade corpus"><rect width="640" height="330" rx="12" fill="#fcfcfb" stroke="rgba(11,11,11,0.10)"/><text x="24" y="34" font-size="17" fill="#0b0b0b" text-anchor="start" font-weight="600">Only half the goldmine is gold</text><text x="24" y="56" font-size="12.5" fill="#898781" text-anchor="start" font-weight="normal">From raw tickets to a training-grade corpus (semantic filter: EmbeddingGemma + UMAP + HDBSCAN)</text><path d="M24,78 L540.0,78 Q544.0,78 544.0,82 L544.0,108 Q544.0,112 540.0,112 L24,112 Z" fill="#86b6ef"/><text x="34" y="99.0" font-size="12.5" fill="#52514e" text-anchor="start" font-weight="normal">All historical tickets</text><text x="552.0" y="99.0" font-size="12.5" fill="#0b0b0b" text-anchor="start" font-weight="600" style="font-variant-numeric: tabular-nums">29,118</text><path d="M24,124 L526.6240813242669,124 Q530.6240813242669,124 530.6240813242669,128 L530.6240813242669,154 Q530.6240813242669,158 526.6240813242669,158 L24,158 Z" fill="#5598e7"/><text x="34" y="145.0" font-size="12.5" fill="#52514e" text-anchor="start" font-weight="normal">Closed (resolution known)</text><text x="538.6240813242669" y="145.0" font-size="12.5" fill="#0b0b0b" text-anchor="start" font-weight="600" style="font-variant-numeric: tabular-nums">28,369</text><path d="M24,170 L505.5333470705406,170 Q509.5333470705406,170 509.5333470705406,174 L509.5333470705406,200 Q509.5333470705406,204 505.5333470705406,204 L24,204 Z" fill="#2a78d6"/><text x="34" y="191.0" font-size="12.5" fill="#ffffff" text-anchor="start" font-weight="normal">With a written solution</text><text x="517.5333470705406" y="191.0" font-size="12.5" fill="#0b0b0b" text-anchor="start" font-weight="600" style="font-variant-numeric: tabular-nums">27,188</text><path d="M24,216 L295.0903221375094,216 Q299.0903221375094,216 299.0903221375094,220 L299.0903221375094,246 Q299.0903221375094,250 295.0903221375094,250 L24,250 Z" fill="#1c5cab"/><text x="34" y="237.0" font-size="12.5" fill="#ffffff" text-anchor="start" font-weight="normal">Training-grade after semantic filter</text><text x="307.0903221375094" y="237.0" font-size="12.5" fill="#0b0b0b" text-anchor="start" font-weight="600" style="font-variant-numeric: tabular-nums">15,404</text></svg>