<svg xmlns="http://www.w3.org/2000/svg" viewBox="0 0 640 360" width="640" height="360" font-family="system-ui, -apple-system, &quot;Segoe UI&quot;, sans-serif" role="img" aria-label="New support tickets per year, 2022 to 2025">
  <rect width="640" height="360" rx="12" fill="#fcfcfb" stroke="rgba(11,11,11,0.10)"/>
  <text x="24" y="34" font-size="17" fill="#0b0b0b" font-weight="600">Ticket volume reached a new high in 2025</text>
  <text x="24" y="56" font-size="13" fill="#898781">New tickets opened per year · 29,118 total</text>
  <text x="48" y="320" font-size="11" fill="#898781" text-anchor="end">0</text>
  <line x1="56" y1="256.5" x2="616" y2="256.5" stroke="#e1e0d9"/>
  <text x="48" y="260.5" font-size="11" fill="#898781" text-anchor="end">2,500</text>
  <line x1="56" y1="197" x2="616" y2="197" stroke="#e1e0d9"/>
  <text x="48" y="201" font-size="11" fill="#898781" text-anchor="end">5,000</text>
  <line x1="56" y1="137.5" x2="616" y2="137.5" stroke="#e1e0d9"/>
  <text x="48" y="141.5" font-size="11" fill="#898781" text-anchor="end">7,500</text>
  <line x1="56" y1="78" x2="616" y2="78" stroke="#e1e0d9"/>
  <text x="48" y="82" font-size="11" fill="#898781" text-anchor="end">10,000</text>
  <path d="M98,316 L98,170.8692 Q98,166.8692 102,166.8692 L150,166.8692 Q154,166.8692 154,170.8692 L154,316 Z" fill="#2a78d6"/>
  <text x="126" y="158.8692" font-size="12.5" fill="#0b0b0b" text-anchor="middle" font-weight="600">6,266</text>
  <text x="126" y="336" font-size="12" fill="#52514e" text-anchor="middle">2022</text>
  <path d="M238,316 L238,153.3524 Q238,149.3524 242,149.3524 L290,149.3524 Q294,149.3524 294,153.3524 L294,316 Z" fill="#2a78d6"/>
  <text x="266" y="141.3524" font-size="12.5" fill="#0b0b0b" text-anchor="middle" font-weight="600">7,002</text>
  <text x="266" y="336" font-size="12" fill="#52514e" text-anchor="middle">2023</text>
  <path d="M378,316 L378,155.6134 Q378,151.6134 382,151.6134 L430,151.6134 Q434,151.6134 434,155.6134 L434,316 Z" fill="#2a78d6"/>
  <text x="406" y="143.6134" font-size="12.5" fill="#0b0b0b" text-anchor="middle" font-weight="600">6,907</text>
  <text x="406" y="336" font-size="12" fill="#52514e" text-anchor="middle">2024</text>
  <path d="M518,316 L518,107.1566 Q518,103.1566 522,103.1566 L570,103.1566 Q574,103.1566 574,107.1566 L574,316 Z" fill="#2a78d6"/>
  <text x="546" y="95.1566" font-size="12.5" fill="#0b0b0b" text-anchor="middle" font-weight="600">8,943</text>
  <text x="546" y="336" font-size="12" fill="#52514e" text-anchor="middle">2025</text>
  <line x1="56" y1="316" x2="616" y2="316" stroke="#c3c2b7"/>
</svg>
